<?xml version="1.0" encoding="utf-8"?>
<svg xmlns="http://www.w3.org/2000/svg" viewBox="17.8349 6.5292 94.5182 132.8671" width="94.5182px" height="132.867px" preserveAspectRatio="none"><defs><style>
		.s0 { fill: #ec066a;stroke: #ec066a;stroke-miterlimit:100 } 
		.s1 { opacity: .99;fill: #505050;stroke: #505050;stroke-miterlimit:100 } 
	</style></defs><g id="object-7" transform="matrix(0.9999999999999999, 0, 0, 0.9999999999999999, -7.105427357601002e-15, -3.552713678800501e-15)"><path style="fill: rgb(82, 82, 82); stroke: rgb(82, 82, 82);" d="M 97.472 94.589 C 98.805 90.184 105.88 70.694 98.068 64.816 C 93.747 61.565 86.142 62.872 78.249 66 C 69.969 67.533 60.802 56.288 64.689 55.568 C 64.637 55.413 70.685 60.618 74.063 58.374 C 92.429 46.171 108.103 49.18 111.629 66.521 C 117.822 96.974 82.464 142.826 74.946 139.193 C 72.238 138.31 90.744 116.822 97.472 94.589 Z" id="object-5"/><path style="fill: rgb(82, 82, 82); stroke: rgb(82, 82, 82);" d="M 71.468 137.454 C 74.897 125.753 77.208 106.002 70.252 102.857 C 64.684 97.953 59.731 102.658 59.299 99.554 C 69.686 89.563 84.687 92.523 77.031 127.023 C 77.588 126.443 73.554 140.569 71.468 137.454 Z" id="object-6"/><path style="isolation: isolate; stroke-width: 0px; stroke: rgb(222, 222, 222); fill: rgb(82, 82, 82); fill-rule: evenodd;" d="M 47.259 125.982 C 49.867 125.292 51.78 119.323 51.78 118.854 C 52.72 121.191 49.614 137.129 43.436 133.632 C 20.721 120.774 7.002 66.533 28.831 54.875 C 50.233 43.445 84.511 62.972 61.089 88.954 C 55.517 95.135 38.476 101.007 38.741 112.595 C 39.01 124.331 47.651 127.707 47.259 125.982 Z M 35.959 107.706 C 29.97 97.975 24.094 61.483 41.174 60.07 C 44.018 58.098 70.487 66.709 48.824 87.713 C 44.059 95.366 40.663 92.038 35.959 107.706 Z" id="object-4"/><path class="s0" d="M 93.983 40.802 C 94.183 40.502 94.483 39.802 94.983 39.202 C 97.983 36.302 101.083 33.402 104.183 30.602 C 105.483 29.402 107.183 29.402 108.183 30.402 C 109.283 31.502 109.283 32.802 107.983 34.102 C 104.916 36.968 101.816 39.868 98.683 42.802 C 97.783 43.602 96.783 43.902 95.583 43.402 C 94.583 43.002 93.983 42.302 93.983 40.802 Z" style="stroke: none; stroke-miterlimit: 4;" id="object-3"/><path class="s0" d="M 20.883 29.602 C 21.183 29.802 21.883 30.002 22.383 30.502 C 25.249 33.368 28.149 36.268 31.083 39.202 C 32.183 40.302 32.283 41.902 31.283 42.902 C 30.183 43.902 28.783 43.902 27.583 42.702 C 24.716 39.835 21.816 36.935 18.883 34.002 C 18.083 33.202 17.683 32.202 18.183 31.102 C 18.683 30.202 19.483 29.602 20.883 29.602 Z" style="stroke: none; stroke-miterlimit: 4;" id="object-2"/><path class="s0" d="M 92.683 16.302 C 92.283 17.502 91.683 18.502 90.483 19.002 C 90.383 19.002 90.283 19.202 90.283 19.302 C 89.083 24.235 87.883 29.135 86.683 34.002 C 86.383 35.202 85.883 35.602 84.483 35.602 C 74.683 35.602 64.783 35.602 54.983 35.702 C 50.449 35.702 45.883 35.702 41.283 35.702 C 39.783 35.702 39.383 35.402 38.983 33.902 C 37.783 29.302 36.683 24.702 35.583 20.102 C 35.383 19.502 35.183 19.002 34.583 18.702 C 32.783 17.702 32.383 15.402 33.583 13.802 C 34.783 12.102 37.083 11.802 38.683 13.102 C 40.283 14.402 40.383 16.702 38.983 18.202 C 38.883 18.302 38.783 18.402 38.683 18.602 C 39.483 19.402 40.249 20.168 40.983 20.902 C 41.883 21.702 42.583 22.602 43.483 23.302 C 46.083 25.802 50.183 25.502 52.483 22.702 C 54.383 20.402 56.183 17.802 58.083 15.402 C 58.683 14.602 59.283 13.702 59.983 12.902 C 60.183 12.602 60.183 12.402 59.983 12.202 C 58.983 10.902 58.983 9.202 59.883 7.902 C 60.883 6.602 62.583 6.202 64.083 6.802 C 65.483 7.302 66.383 8.802 66.183 10.402 C 66.083 11.102 65.683 11.802 65.383 12.602 C 66.983 14.702 68.583 16.902 70.283 19.102 C 71.083 20.102 71.883 21.202 72.683 22.302 C 75.183 25.702 79.483 26.002 82.483 23.002 C 83.783 21.602 85.183 20.302 86.483 18.902 C 86.616 18.835 86.749 18.702 86.883 18.502 C 85.983 17.702 85.483 16.802 85.583 15.602 C 85.683 14.002 86.883 12.602 88.483 12.302 C 90.183 12.002 91.783 13.002 92.383 14.602 C 92.383 14.802 92.483 15.002 92.583 15.202 C 92.683 15.602 92.683 16.002 92.683 16.302 Z" style="stroke: none; stroke-miterlimit: 4;" id="object-0"/><path class="s0" d="M 63.883 45.602 C 56.816 45.602 49.683 45.602 42.483 45.602 C 41.883 45.602 41.283 45.502 40.883 44.902 C 40.683 44.702 40.483 44.302 40.483 43.902 C 40.483 42.635 40.483 41.335 40.483 40.002 C 40.483 38.902 41.183 38.302 42.283 38.202 C 42.416 38.202 42.583 38.202 42.783 38.202 C 56.883 38.202 70.983 38.202 84.983 38.202 C 86.683 38.202 87.283 38.802 87.283 40.502 C 87.283 41.502 87.283 42.535 87.283 43.602 C 87.283 44.902 86.583 45.502 85.283 45.502 C 78.183 45.602 70.983 45.602 63.883 45.602 Z" style="stroke: none; stroke-miterlimit: 4;" id="object-1"/></g></svg>