<?xml version="1.0" encoding="utf-8"?>
<svg version="1.2" xmlns="http://www.w3.org/2000/svg" viewBox="0 0 127 145" width="127" height="145" xmlns:bx="https://boxy-svg.com"><defs><bx:guide x="111.416" y="58.576" angle="180"/><bx:guide x="16.772" y="54.291" angle="0"/><bx:guide x="43.973" y="114.282" angle="0"/><bx:guide x="75.45891111991402" y="118.19444296133635" angle="0"/><bx:guide x="63.72152779696441" y="31.00245256228217" angle="0"/><bx:guide x="26.832608781979943" y="31.375067905867876" angle="0"/><bx:guide x="95.2075243299562" y="27.0899914546323" angle="0"/><bx:guide x="98.00213940684897" y="42.92614355702463" angle="0"/><bx:guide x="50.30737542787915" y="96.21013768977996" angle="0"/><bx:guide x="60.36798970469309" y="76.46152447973778" angle="0"/><bx:guide x="76.76306482246396" y="77.57937051049487" angle="0"/><bx:guide x="72.1053730276427" y="86.52213875655171" angle="0"/><bx:guide x="69.68337329433564" y="116.51767391520069" angle="0"/><bx:export><bx:file format="svg" path="diente-1.svg"/></bx:export></defs><title>diente-1</title><style>
		.s0 { fill: #ec066a;stroke: #ec066a;stroke-miterlimit:100 } 
		.s1 { opacity: .99;fill: #505050;stroke: #505050;stroke-miterlimit:100 } 
	</style><path id="Path 0 copy" fill-rule="evenodd" class="s0" d="m63.4 0c0.6 0 2.2 1.1 3.6 2.5 1.4 1.5 4.8 3.9 7.5 5.5 2.8 1.6 10.2 4.9 16.5 7.5 6.3 2.5 14.9 5.5 19 6.6 4.1 1 8.8 1.9 10.5 1.9 1.7 0 3.8 0.5 4.8 1.2 1.7 1.2 1.8 3.5 1.2 66.3l-2.7 5.5c-1.4 3-5.7 8.6-9.5 12.5-3.7 3.9-11.3 10.4-16.8 14.5-5.5 4.1-15.2 10.5-21.5 14.2-6.3 3.8-12 6.8-12.5 6.8-0.5 0-5-2.3-10-5.1-5-2.8-12.4-7.4-16.5-10.2-4.1-2.7-10.4-7.5-14-10.5-3.6-3-8.9-8.2-11.8-11.6-2.9-3.3-6.5-8.6-10.7-17.1l-0.2-32.2c-0.3-29.9-0.2-32.4 1.5-33.2 0.9-0.4 4-1.1 6.7-1.4 2.8-0.3 10-2.1 16-4.1 6-2 16-6.1 22-9 6-3 12.1-6.6 13.4-8 1.3-1.4 2.9-2.6 3.5-2.6zm-12.9 14.8c-4.4 2.2-12.3 5.6-17.5 7.5-5.2 2-12.2 4.2-15.5 5.1-3.3 0.8-7.2 1.8-8.7 2.1l-2.8 0.5c0 56.3 0.2 59.9 1.9 63.5 1 2.2 4 6.7 6.8 10 2.7 3.3 8.3 8.7 12.4 12 4.1 3.3 11.2 8.5 15.9 11.6 4.7 3 11.1 7 14.3 8.7l5.7 3.2c6.6-3.2 14.9-8.4 22.8-13.6 9-6 17.2-12.4 22.6-17.6 4.6-4.6 9.3-10.2 10.5-12.5 2-4.1 2.1-5.7 2.1-34.8v-30.5c-4.3-0.8-9.1-2-13.5-3.1-4.4-1.2-13.4-4.3-20-7-6.6-2.7-14.8-6.7-18.2-8.8-6.1-3.7-6.3-3.8-8.5-2.1-1.3 1-5.9 3.6-10.3 5.8z"/><path style="fill: rgb(82, 82, 82); stroke: rgb(82, 82, 82);" d="M 97.472 74.589 C 98.805 70.184 105.88 50.694 98.068 44.816 C 93.747 41.565 86.142 42.872 78.249 46 C 69.969 47.533 60.802 36.288 64.689 35.568 C 64.637 35.413 70.685 40.618 74.063 38.374 C 92.429 26.171 108.103 29.18 111.629 46.521 C 117.822 76.974 82.464 122.826 74.946 119.193 C 72.238 118.31 90.744 96.822 97.472 74.589 Z"/><path style="fill: rgb(82, 82, 82); stroke: rgb(82, 82, 82);" d="M 71.468 117.454 C 74.897 105.753 77.208 86.002 70.252 82.857 C 64.684 77.953 59.731 82.658 59.299 79.554 C 69.686 69.563 84.687 72.523 77.031 107.023 C 77.588 106.443 73.554 120.569 71.468 117.454 Z"/><g><a transform="matrix(1, 0, 0, 1, 1, 0)"><path style="isolation: isolate; stroke-width: 0px; stroke: rgb(222, 222, 222); fill: rgb(82, 82, 82); fill-rule: evenodd;" d="M 46.259 105.982 C 48.867 105.292 50.78 99.323 50.78 98.854 C 51.72 101.191 48.614 117.129 42.436 113.632 C 19.721 100.774 6.002 46.533 27.831 34.875 C 49.233 23.445 83.511 42.972 60.089 68.954 C 54.517 75.135 37.476 81.007 37.741 92.595 C 38.01 104.331 46.651 107.707 46.259 105.982 Z M 34.959 87.706 C 28.97 77.975 23.094 41.483 40.174 40.07 C 43.018 38.098 69.487 46.709 47.824 67.713 C 43.059 75.366 39.663 72.038 34.959 87.706 Z"/></a></g></svg>