<?xml version="1.0" encoding="utf-8"?>
<svg xmlns="http://www.w3.org/2000/svg" viewBox="2.8349 8.115 120.5011 132.2814" width="120.501px" height="132.281px" preserveAspectRatio="none"><defs><style>
		.s0 { fill: #ec066a;stroke: #ec066a;stroke-miterlimit:100 } 
		.s1 { opacity: .99;fill: #505050;stroke: #505050;stroke-miterlimit:100 } 
	</style></defs><g id="object-0" transform="matrix(0.9999999999999999, 0, 0, 0.9999999999999999, -7.105427357601002e-15, -3.552713678800501e-15)"><path style="fill: rgb(82, 82, 82); stroke: rgb(82, 82, 82);" d="M 82.472 95.589 C 83.805 91.184 90.88 71.694 83.068 65.816 C 78.747 62.565 71.142 63.872 63.249 67 C 54.969 68.533 45.802 57.288 49.689 56.568 C 49.637 56.413 55.685 61.618 59.063 59.374 C 77.429 47.171 93.103 50.18 96.629 67.521 C 102.822 97.974 67.464 143.826 59.946 140.193 C 57.238 139.31 75.744 117.822 82.472 95.589 Z" id="object-5"/><path style="fill: rgb(82, 82, 82); stroke: rgb(82, 82, 82);" d="M 56.468 138.454 C 59.897 126.753 62.208 107.002 55.252 103.857 C 49.684 98.953 44.731 103.658 44.299 100.554 C 54.686 90.563 69.687 93.523 62.031 128.023 C 62.588 127.443 58.554 141.569 56.468 138.454 Z" id="object-6"/><path style="isolation: isolate; stroke-width: 0px; stroke: rgb(222, 222, 222); fill: rgb(82, 82, 82); fill-rule: evenodd;" d="M 32.259 126.982 C 34.867 126.292 36.78 120.323 36.78 119.854 C 37.72 122.191 34.614 138.129 28.436 134.632 C 5.721 121.774 -7.998 67.533 13.831 55.875 C 35.233 44.445 69.511 63.972 46.089 89.954 C 40.517 96.135 23.476 102.007 23.741 113.595 C 24.01 125.331 32.651 128.707 32.259 126.982 Z M 20.959 108.706 C 14.97 98.975 9.094 62.483 26.174 61.07 C 29.018 59.098 55.487 67.709 33.824 88.713 C 29.059 96.366 25.663 93.038 20.959 108.706 Z" id="object-4"/><path id="Path 0" fill-rule="evenodd" class="s1" d="M 69.336 8.115 C 70.736 8.115 72.136 9.615 73.836 13.115 C 75.836 17.115 77.336 18.615 81.336 20.615 C 84.036 21.915 86.536 23.715 86.836 24.615 C 87.136 25.415 86.736 26.515 86.036 27.015 C 85.436 27.515 82.936 28.815 80.536 30.015 C 77.336 31.615 75.736 33.315 73.836 37.115 C 72.136 40.615 70.736 42.115 69.336 42.115 C 67.936 42.115 66.536 40.615 64.836 37.115 C 62.836 33.215 61.336 31.615 57.536 29.715 C 54.936 28.515 52.536 26.715 52.036 25.715 C 51.636 24.815 51.836 23.715 52.636 23.215 C 53.236 22.715 55.736 21.415 58.136 20.215 C 61.236 18.615 62.936 16.915 64.836 13.115 C 66.636 9.615 67.936 8.115 69.336 8.115 Z M 67.736 18.815 C 66.636 20.615 64.536 22.615 62.836 23.415 L 59.836 24.915 C 64.236 27.015 66.436 29.215 67.536 31.115 L 69.536 34.615 C 72.336 29.215 74.436 27.015 75.936 26.215 L 78.836 24.915 C 73.836 22.315 71.736 20.315 70.936 18.615 L 69.536 15.615 L 67.736 18.815 Z" style="fill: rgb(255, 42, 134); opacity: 1; stroke: none; stroke-miterlimit: 4;"/><path class="s0" d="M 105.336 61.015 L 111.336 49.015 L 123.336 43.015 L 111.336 37.015 L 105.336 25.115 L 99.336 37.015 L 87.336 43.015 L 99.336 49.015 L 105.336 61.015 Z" style="fill: none; stroke: rgb(80, 80, 80); stroke-linejoin: round; stroke-miterlimit: 4; stroke-width: 5px;"/></g></svg>